<svg width="76" height="76" viewBox="0 0 76 76" fill="none" xmlns="http://www.w3.org/2000/svg">
<g clip-path="url(#clip0_1_425)">
<rect opacity="0.136765" width="76" height="76" rx="11" fill="#717CFF"/>
<path d="M36.9453 32.0337V35H23.8145V32.4688L30.0239 25.811C30.6479 25.1167 31.1401 24.5059 31.5005 23.9785C31.8608 23.4424 32.1201 22.9634 32.2783 22.5415C32.4453 22.1108 32.5288 21.7021 32.5288 21.3154C32.5288 20.7354 32.4321 20.2388 32.2388 19.8257C32.0454 19.4038 31.7598 19.0786 31.3818 18.8501C31.0127 18.6216 30.5557 18.5073 30.0107 18.5073C29.4307 18.5073 28.9297 18.6479 28.5078 18.9292C28.0947 19.2104 27.7783 19.6016 27.5586 20.1025C27.3477 20.6035 27.2422 21.1704 27.2422 21.8032H23.4321C23.4321 20.6606 23.7046 19.6147 24.2495 18.6655C24.7944 17.7075 25.5635 16.9473 26.5566 16.3848C27.5498 15.8135 28.7275 15.5278 30.0898 15.5278C31.4346 15.5278 32.5684 15.7476 33.4912 16.187C34.4229 16.6177 35.126 17.2417 35.6006 18.0591C36.084 18.8677 36.3257 19.8345 36.3257 20.9595C36.3257 21.5923 36.2246 22.2119 36.0225 22.8184C35.8203 23.416 35.5303 24.0137 35.1523 24.6113C34.7832 25.2002 34.335 25.7979 33.8076 26.4043C33.2803 27.0107 32.6958 27.6392 32.0542 28.2896L28.7188 32.0337H36.9453ZM43.2075 23.7544H45.2378C45.8882 23.7544 46.4243 23.6445 46.8462 23.4248C47.2681 23.1963 47.5801 22.8799 47.7822 22.4756C47.9932 22.0625 48.0986 21.5835 48.0986 21.0386C48.0986 20.5464 48.002 20.1113 47.8086 19.7334C47.624 19.3467 47.3384 19.0479 46.9517 18.8369C46.5649 18.6172 46.0771 18.5073 45.4883 18.5073C45.0225 18.5073 44.5918 18.5996 44.1963 18.7842C43.8008 18.9688 43.4844 19.228 43.2471 19.562C43.0098 19.896 42.8911 20.3003 42.8911 20.7749H39.0811C39.0811 19.7202 39.3623 18.8018 39.9248 18.0195C40.4961 17.2373 41.2607 16.6265 42.2188 16.187C43.1768 15.7476 44.2314 15.5278 45.3828 15.5278C46.6836 15.5278 47.8218 15.7388 48.7974 16.1606C49.7729 16.5737 50.5332 17.1846 51.0781 17.9932C51.623 18.8018 51.8955 19.8037 51.8955 20.999C51.8955 21.6055 51.7549 22.1943 51.4736 22.7656C51.1924 23.3281 50.7881 23.8379 50.2607 24.2949C49.7422 24.7432 49.1094 25.1035 48.3623 25.376C47.6152 25.6396 46.7759 25.7715 45.8442 25.7715H43.2075V23.7544ZM43.2075 26.6416V24.6772H45.8442C46.8901 24.6772 47.8086 24.7959 48.5996 25.0332C49.3906 25.2705 50.0542 25.6133 50.5903 26.0615C51.1265 26.501 51.5308 27.0239 51.8032 27.6304C52.0757 28.228 52.2119 28.8916 52.2119 29.6211C52.2119 30.5176 52.0405 31.3174 51.6978 32.0205C51.355 32.7148 50.8716 33.3037 50.2476 33.7871C49.6323 34.2705 48.9116 34.6396 48.0854 34.8945C47.2593 35.1406 46.3584 35.2637 45.3828 35.2637C44.5742 35.2637 43.7788 35.1538 42.9966 34.9341C42.2231 34.7056 41.52 34.3672 40.8872 33.9189C40.2632 33.4619 39.7622 32.8906 39.3843 32.2051C39.0151 31.5107 38.8306 30.689 38.8306 29.7397H42.6406C42.6406 30.2319 42.7637 30.6714 43.0098 31.0581C43.2559 31.4448 43.5942 31.748 44.0249 31.9678C44.4644 32.1875 44.9521 32.2974 45.4883 32.2974C46.0947 32.2974 46.6133 32.1875 47.0439 31.9678C47.4834 31.7393 47.8174 31.4229 48.0459 31.0186C48.2832 30.6055 48.4019 30.1265 48.4019 29.5815C48.4019 28.8784 48.2744 28.3159 48.0195 27.894C47.7646 27.4634 47.3999 27.147 46.9253 26.9448C46.4507 26.7427 45.8882 26.6416 45.2378 26.6416H43.2075Z" fill="#717CFF"/>
<path d="M27.2168 59H24.3779L24.3955 56.627H27.2168C27.8027 56.627 28.2979 56.4863 28.7021 56.2051C29.1123 55.9238 29.4229 55.5049 29.6338 54.9482C29.8506 54.3857 29.959 53.6943 29.959 52.874V52.3203C29.959 51.7051 29.8975 51.166 29.7744 50.7031C29.6572 50.2344 29.4814 49.8447 29.2471 49.5342C29.0127 49.2178 28.7197 48.9805 28.3682 48.8223C28.0225 48.6641 27.624 48.585 27.1729 48.585H24.3252V46.2031H27.1729C28.04 46.2031 28.834 46.3525 29.5547 46.6514C30.2812 46.9443 30.9082 47.3662 31.4355 47.917C31.9688 48.4619 32.3789 49.1094 32.666 49.8594C32.959 50.6035 33.1055 51.4297 33.1055 52.3379V52.874C33.1055 53.7764 32.959 54.6025 32.666 55.3525C32.3789 56.1025 31.9717 56.75 31.4443 57.2949C30.917 57.8398 30.293 58.2617 29.5723 58.5605C28.8574 58.8535 28.0723 59 27.2168 59ZM26.1445 46.2031V59H23.0596V46.2031H26.1445ZM39.1787 59.1758C38.4053 59.1758 37.7139 59.0557 37.1045 58.8154C36.4951 58.5693 35.9795 58.2324 35.5576 57.8047C35.1416 57.377 34.8223 56.8848 34.5996 56.3281C34.3828 55.7715 34.2744 55.1826 34.2744 54.5615V54.2275C34.2744 53.5303 34.3711 52.8857 34.5645 52.2939C34.7578 51.6963 35.0449 51.1748 35.4258 50.7295C35.8066 50.2842 36.2842 49.9385 36.8584 49.6924C37.4326 49.4404 38.1006 49.3145 38.8623 49.3145C39.5361 49.3145 40.1396 49.4229 40.6729 49.6396C41.2061 49.8564 41.6572 50.167 42.0264 50.5713C42.4014 50.9756 42.6855 51.4648 42.8789 52.0391C43.0781 52.6133 43.1777 53.2578 43.1777 53.9727V55.1768H35.4082V53.3223H40.2861V53.0938C40.292 52.7773 40.2363 52.5078 40.1191 52.2852C40.0078 52.0625 39.8438 51.8926 39.627 51.7754C39.4102 51.6582 39.1465 51.5996 38.8359 51.5996C38.5137 51.5996 38.2471 51.6699 38.0361 51.8105C37.8311 51.9512 37.6699 52.1445 37.5527 52.3906C37.4414 52.6309 37.3623 52.9092 37.3154 53.2256C37.2686 53.542 37.2451 53.876 37.2451 54.2275V54.5615C37.2451 54.9131 37.292 55.2324 37.3857 55.5195C37.4854 55.8066 37.626 56.0527 37.8076 56.2578C37.9951 56.457 38.2178 56.6123 38.4756 56.7236C38.7393 56.835 39.0381 56.8906 39.3721 56.8906C39.7764 56.8906 40.1748 56.8145 40.5674 56.6621C40.96 56.5098 41.2969 56.2578 41.5781 55.9062L42.9229 57.5059C42.7295 57.7812 42.4541 58.0479 42.0967 58.3057C41.7451 58.5635 41.3232 58.7744 40.8311 58.9385C40.3389 59.0967 39.7881 59.1758 39.1787 59.1758ZM48.3984 56.8906C48.6738 56.8906 48.9082 56.8408 49.1016 56.7412C49.3008 56.6357 49.4502 56.4893 49.5498 56.3018C49.6553 56.1084 49.7051 55.877 49.6992 55.6074H52.4854C52.4912 56.3223 52.3154 56.9492 51.958 57.4883C51.6064 58.0215 51.126 58.4375 50.5166 58.7363C49.9131 59.0293 49.2305 59.1758 48.4688 59.1758C47.7246 59.1758 47.0742 59.0557 46.5176 58.8154C45.9609 58.5693 45.4951 58.2295 45.1201 57.7959C44.751 57.3564 44.4727 56.8438 44.2852 56.2578C44.1035 55.6719 44.0127 55.0361 44.0127 54.3506V54.1484C44.0127 53.4629 44.1035 52.8271 44.2852 52.2412C44.4727 51.6494 44.751 51.1367 45.1201 50.7031C45.4951 50.2637 45.958 49.9238 46.5088 49.6836C47.0654 49.4375 47.7129 49.3145 48.4512 49.3145C49.2422 49.3145 49.9395 49.4639 50.543 49.7627C51.1523 50.0615 51.6299 50.4951 51.9756 51.0635C52.3213 51.6318 52.4912 52.3203 52.4854 53.1289H49.6992C49.7051 52.8418 49.6611 52.584 49.5674 52.3555C49.4736 52.127 49.3271 51.9453 49.1279 51.8105C48.9346 51.6699 48.6855 51.5996 48.3809 51.5996C48.0762 51.5996 47.8301 51.667 47.6426 51.8018C47.4551 51.9365 47.3115 52.124 47.2119 52.3643C47.1182 52.5986 47.0537 52.8682 47.0186 53.1729C46.9893 53.4775 46.9746 53.8027 46.9746 54.1484V54.3506C46.9746 54.7021 46.9893 55.0332 47.0186 55.3438C47.0537 55.6484 47.1211 55.918 47.2207 56.1523C47.3203 56.3809 47.4639 56.5625 47.6514 56.6973C47.8389 56.8262 48.0879 56.8906 48.3984 56.8906Z" fill="#717CFF"/>
</g>
<defs>
<clipPath id="clip0_1_425">
<rect width="76" height="76" fill="white"/>
</clipPath>
</defs>
</svg>
