<svg width="76" height="76" viewBox="0 0 76 76" fill="none" xmlns="http://www.w3.org/2000/svg">
<rect width="76" height="76" rx="38" fill="#717CFF"/>
<path d="M48.204 27.7559C47.6501 28.3098 47.6039 29.1714 48.0963 29.7868C50.3273 32.5871 51.4966 36.4182 50.4503 40.434C49.2348 45.1268 45.5576 48.6348 40.8956 49.5733C33.0487 51.1273 26.1711 45.0652 26.1711 37.4799C26.1711 31.2024 30.8638 26.0326 36.9414 25.2787V28.3867C32.1255 29.2022 28.5867 33.7103 29.356 38.8954C29.9561 42.9112 33.2949 46.1422 37.326 46.6346C42.9265 47.327 47.7116 42.9573 47.7116 37.4799C47.7116 35.5566 47.1269 33.7872 46.1269 32.3101C45.6037 31.5408 44.4805 31.4947 43.8189 32.1409L43.8036 32.1563C43.2804 32.6794 43.2343 33.4949 43.6343 34.1103C44.5575 35.5258 44.9267 37.3414 44.3882 39.2185C43.7882 41.3264 42.0188 43.0035 39.8647 43.4805C35.8643 44.3575 32.3255 41.3418 32.3255 37.4799C32.3255 34.6181 34.2949 32.2332 36.9414 31.5408V34.8335C36.0182 35.372 35.4027 36.3413 35.4027 37.4799C35.4027 39.1723 36.7875 40.5571 38.48 40.5571C40.1724 40.5571 41.5572 39.1723 41.5572 37.4799C41.5572 36.3413 40.9417 35.3566 40.0186 34.8335V23.1862C40.0186 22.5861 39.5262 22.0938 38.9262 22.0938C30.6792 21.7861 23.5708 28.3405 23.1246 36.5567C22.5707 46.6346 31.4485 54.7431 41.6033 52.5582C47.5731 51.2812 52.189 46.7115 53.5276 40.7571C54.62 35.8951 53.2198 31.2793 50.4965 27.879C49.9272 27.1558 48.8502 27.1096 48.204 27.7559Z" fill="#37474F"/>
<mask id="mask0_1_468" style="mask-type:luminance" maskUnits="userSpaceOnUse" x="23" y="22" width="31" height="31">
<path d="M48.204 27.7559C47.6501 28.3098 47.6039 29.1714 48.0963 29.7868C50.3273 32.5871 51.4966 36.4182 50.4503 40.434C49.2348 45.1268 45.5576 48.6348 40.8956 49.5733C33.0487 51.1273 26.1711 45.0652 26.1711 37.4799C26.1711 31.2024 30.8638 26.0326 36.9414 25.2787V28.3867C32.1255 29.2022 28.5867 33.7103 29.356 38.8954C29.9561 42.9112 33.2949 46.1422 37.326 46.6346C42.9265 47.327 47.7116 42.9573 47.7116 37.4799C47.7116 35.5566 47.1269 33.7872 46.1269 32.3101C45.6037 31.5408 44.4805 31.4947 43.8189 32.1409L43.8036 32.1563C43.2804 32.6794 43.2343 33.4949 43.6343 34.1103C44.5575 35.5258 44.9267 37.3414 44.3882 39.2185C43.7882 41.3264 42.0188 43.0035 39.8647 43.4805C35.8643 44.3575 32.3255 41.3418 32.3255 37.4799C32.3255 34.6181 34.2949 32.2332 36.9414 31.5408V34.8335C36.0182 35.372 35.4027 36.3413 35.4027 37.4799C35.4027 39.1723 36.7875 40.5571 38.48 40.5571C40.1724 40.5571 41.5572 39.1723 41.5572 37.4799C41.5572 36.3413 40.9417 35.3566 40.0186 34.8335V23.1862C40.0186 22.5861 39.5262 22.0938 38.9262 22.0938C30.6792 21.7861 23.5708 28.3405 23.1246 36.5567C22.5707 46.6346 31.4485 54.7431 41.6033 52.5582C47.5731 51.2812 52.189 46.7115 53.5276 40.7571C54.62 35.8951 53.2198 31.2793 50.4965 27.879C49.9272 27.1558 48.8502 27.1096 48.204 27.7559Z" fill="white"/>
</mask>
<g mask="url(#mask0_1_468)">
</g>
</svg>
