<svg width="76" height="76" viewBox="0 0 76 76" fill="none" xmlns="http://www.w3.org/2000/svg">
<rect width="76" height="76" rx="38" fill="#70CE88"/>
<path fill-rule="evenodd" clip-rule="evenodd" d="M43.1255 22.0834H30.1921C28.8204 22.0834 27.7083 23.2608 27.7083 24.7133V48.3824C27.7083 49.8348 28.8204 51.0123 30.1921 51.0123H47.5787C48.9505 51.0123 50.0625 49.8348 50.0625 48.3824V29.4284L43.1255 22.0834ZM30.1921 24.7133H40.1273V29.9731C40.1273 31.4255 41.2394 32.603 42.6111 32.603H47.5787V48.3824H30.1921V24.7133ZM42.6111 29.9731V25.2579L47.0643 29.9731H42.6111ZM42.9749 35.618L37.6435 41.263L34.796 38.2479L33.0397 40.1075L37.6435 44.9822L44.7312 37.4776L42.9749 35.618Z" fill="#262626"/>
</svg>
