<svg width="24" height="24" viewBox="0 0 24 24" fill="none" xmlns="http://www.w3.org/2000/svg">
<path fill-rule="evenodd" clip-rule="evenodd" d="M12 20.3334C16.6023 20.3334 20.3333 16.6024 20.3333 12C20.3333 7.39764 16.6023 3.66669 12 3.66669C7.39763 3.66669 3.66667 7.39764 3.66667 12C3.66667 16.6024 7.39763 20.3334 12 20.3334ZM12 18.6667C15.6819 18.6667 18.6667 15.6819 18.6667 12C18.6667 8.31812 15.6819 5.33335 12 5.33335C8.3181 5.33335 5.33334 8.31812 5.33334 12C5.33334 15.6819 8.3181 18.6667 12 18.6667ZM11.1667 7.83335H9.50001V13.6667H15.3333V12H11.1667V7.83335Z" fill="#2D2D2D"/>
<mask id="mask0_1_413" style="mask-type:luminance" maskUnits="userSpaceOnUse" x="3" y="3" width="18" height="18">
<path fill-rule="evenodd" clip-rule="evenodd" d="M12 20.3334C16.6023 20.3334 20.3333 16.6024 20.3333 12C20.3333 7.39764 16.6023 3.66669 12 3.66669C7.39763 3.66669 3.66667 7.39764 3.66667 12C3.66667 16.6024 7.39763 20.3334 12 20.3334ZM12 18.6667C15.6819 18.6667 18.6667 15.6819 18.6667 12C18.6667 8.31812 15.6819 5.33335 12 5.33335C8.3181 5.33335 5.33334 8.31812 5.33334 12C5.33334 15.6819 8.3181 18.6667 12 18.6667ZM11.1667 7.83335H9.50001V13.6667H15.3333V12H11.1667V7.83335Z" fill="white"/>
</mask>
<g mask="url(#mask0_1_413)">
</g>
</svg>
