<svg width="16" height="14" viewBox="0 0 16 14" fill="none" xmlns="http://www.w3.org/2000/svg">
<path fill-rule="evenodd" clip-rule="evenodd" d="M9.21097 0.114796C10.5074 -0.140114 11.6718 0.0448076 12.6524 0.518066C12.7058 0.543873 12.7575 0.56989 12.8074 0.596013L13.7683 0.207146C14.7579 -0.193344 15.8037 0.644332 15.6298 1.69698C16.1011 2.21467 16.1758 3.07967 15.539 3.64935L14.5534 4.53091C14.5655 5.61489 14.4169 6.58677 13.9604 7.6701C13.1466 9.60112 11.9796 11.0534 10.5519 12.0636C9.54284 12.7776 8.46314 13.2309 7.37503 13.4749C6.67173 13.6326 6.07509 13.6818 5.63609 13.6708C4.29598 13.686 3.06158 13.4025 1.96025 12.9204C1.30496 12.6336 0.82356 12.3372 0.534258 12.1137C-0.511611 11.3058 0.0838147 9.63153 1.40498 9.66538C1.6586 9.67188 1.89616 9.66816 2.11834 9.65527C1.69765 9.15649 1.47435 8.65494 1.38366 8.24222C1.35216 8.09888 1.3443 7.95683 1.35717 7.81967C1.26986 7.71434 1.18848 7.60505 1.11304 7.49199C0.57848 6.69082 0.420758 5.8672 0.465032 5.16395C0.468224 5.12058 0.469422 5.10431 0.470994 5.08806L0.474746 5.05295C0.498787 4.84869 0.56441 4.66432 0.660772 4.50463C0.377683 3.60281 0.441945 2.69596 0.708646 1.84216C0.795389 1.56446 0.88671 1.34727 0.96082 1.20151C1.40238 0.333057 2.58478 0.192109 3.21812 0.932432C4.21531 2.09808 5.20028 2.79114 6.13967 3.12697C6.25622 3.16864 6.36818 3.20364 6.47529 3.23265C6.77431 1.34515 8.01674 0.216253 9.21097 0.114796ZM7.80981 4.83335C7.80981 4.83335 5.33752 5.40669 2.57878 2.18191C2.57878 2.18191 1.50392 4.29592 3.36717 5.58562C3.36717 5.58562 2.75834 5.69314 2.25619 5.33507C2.25619 5.33507 2.04114 7.16219 4.26267 7.87876H3.08029C3.08029 7.87876 3.40308 9.34781 5.48096 9.67018C5.48096 9.67018 4.62117 10.8167 1.82629 10.745C1.82629 10.745 3.40308 11.9631 5.80376 11.9272C5.80376 11.9272 10.2462 12.1423 12.3602 7.12607C12.88 5.89247 12.826 4.72582 12.7901 4.15227L14.1516 2.9344L12.7901 3.18515C12.7901 3.18515 13.7217 2.5045 13.8295 1.85954L12.3245 2.46858C12.3245 2.46858 11.1959 1.44749 9.27886 1.85954C9.27865 1.85954 7.52335 2.21783 7.80981 4.83335Z" fill="white"/>
<mask id="mask0_1_144" style="mask-type:luminance" maskUnits="userSpaceOnUse" x="0" y="0" width="16" height="14">
<path fill-rule="evenodd" clip-rule="evenodd" d="M9.21097 0.114796C10.5074 -0.140114 11.6718 0.0448076 12.6524 0.518066C12.7058 0.543873 12.7575 0.56989 12.8074 0.596013L13.7683 0.207146C14.7579 -0.193344 15.8037 0.644332 15.6298 1.69698C16.1011 2.21467 16.1758 3.07967 15.539 3.64935L14.5534 4.53091C14.5655 5.61489 14.4169 6.58677 13.9604 7.6701C13.1466 9.60112 11.9796 11.0534 10.5519 12.0636C9.54284 12.7776 8.46314 13.2309 7.37503 13.4749C6.67173 13.6326 6.07509 13.6818 5.63609 13.6708C4.29598 13.686 3.06158 13.4025 1.96025 12.9204C1.30496 12.6336 0.82356 12.3372 0.534258 12.1137C-0.511611 11.3058 0.0838147 9.63153 1.40498 9.66538C1.6586 9.67188 1.89616 9.66816 2.11834 9.65527C1.69765 9.15649 1.47435 8.65494 1.38366 8.24222C1.35216 8.09888 1.3443 7.95683 1.35717 7.81967C1.26986 7.71434 1.18848 7.60505 1.11304 7.49199C0.57848 6.69082 0.420758 5.8672 0.465032 5.16395C0.468224 5.12058 0.469422 5.10431 0.470994 5.08806L0.474746 5.05295C0.498787 4.84869 0.56441 4.66432 0.660772 4.50463C0.377683 3.60281 0.441945 2.69596 0.708646 1.84216C0.795389 1.56446 0.88671 1.34727 0.96082 1.20151C1.40238 0.333057 2.58478 0.192109 3.21812 0.932432C4.21531 2.09808 5.20028 2.79114 6.13967 3.12697C6.25622 3.16864 6.36818 3.20364 6.47529 3.23265C6.77431 1.34515 8.01674 0.216253 9.21097 0.114796ZM7.80981 4.83335C7.80981 4.83335 5.33752 5.40669 2.57878 2.18191C2.57878 2.18191 1.50392 4.29592 3.36717 5.58562C3.36717 5.58562 2.75834 5.69314 2.25619 5.33507C2.25619 5.33507 2.04114 7.16219 4.26267 7.87876H3.08029C3.08029 7.87876 3.40308 9.34781 5.48096 9.67018C5.48096 9.67018 4.62117 10.8167 1.82629 10.745C1.82629 10.745 3.40308 11.9631 5.80376 11.9272C5.80376 11.9272 10.2462 12.1423 12.3602 7.12607C12.88 5.89247 12.826 4.72582 12.7901 4.15227L14.1516 2.9344L12.7901 3.18515C12.7901 3.18515 13.7217 2.5045 13.8295 1.85954L12.3245 2.46858C12.3245 2.46858 11.1959 1.44749 9.27886 1.85954C9.27865 1.85954 7.52335 2.21783 7.80981 4.83335Z" fill="white"/>
</mask>
<g mask="url(#mask0_1_144)">
</g>
</svg>
